<?xml version="1.0" standalone="no"?>
<!DOCTYPE svg PUBLIC "-//W3C//DTD SVG 20010904//EN"
 "http://www.w3.org/TR/2001/REC-SVG-20010904/DTD/svg10.dtd">
<svg version="1.0" xmlns="http://www.w3.org/2000/svg"
 width="270.000000pt" height="357.000000pt" viewBox="0 0 270.000000 357.000000"
 preserveAspectRatio="xMidYMid meet">
<metadata>
Created by potrace 1.15, written by Peter Selinger 2001-2017
</metadata>
<g transform="translate(0.000000,357.000000) scale(0.100000,-0.100000)"
fill="#000000" stroke="none">
<path d="M970 3084 c-28 -12 -43 -13 -71 -5 -57 17 -110 13 -162 -12 l-48 -24
-58 21 c-51 18 -63 18 -100 7 -48 -14 -115 -70 -138 -115 -12 -23 -14 -49 -10
-111 2 -44 0 -136 -5 -205 -18 -220 -19 -297 -20 -785 0 -181 0 -368 -1 -415
-1 -47 0 -146 2 -220 2 -74 0 -158 -4 -185 -5 -37 -3 -61 9 -89 20 -47 20 -69
1 -121 -39 -109 5 -224 106 -275 41 -22 112 -26 154 -10 21 8 36 5 73 -12 31
-15 64 -22 97 -21 49 2 90 2 220 2 36 0 83 0 105 0 22 0 68 -1 103 -1 34 0 78
1 97 3 19 1 56 -3 82 -11 38 -11 55 -11 100 -1 46 11 59 11 92 -3 49 -21 106
-20 150 1 30 14 42 14 74 5 61 -19 113 -14 164 13 l47 25 41 -21 c99 -52 194
-28 256 65 47 71 53 127 24 207 -20 54 -22 67 -12 108 10 44 10 195 -2 751 -4
166 -5 315 -4 745 0 98 -17 265 -30 297 -10 24 -8 35 13 74 32 59 32 114 1
179 -51 108 -152 151 -256 109 -39 -16 -43 -15 -83 2 -25 12 -61 18 -92 18
-80 -3 -136 -3 -205 -2 -36 1 -78 0 -95 -1 -16 -2 -57 0 -90 4 -35 4 -76 3
-98 -3 -29 -8 -46 -7 -72 4 -41 17 -90 18 -134 3 -25 -9 -40 -8 -71 5 -50 20
-104 20 -150 0z m144 -69 l48 -25 28 20 c37 26 76 25 132 -3 43 -22 45 -22 74
-5 48 29 143 20 166 -16 4 -7 13 -5 25 6 31 28 83 36 130 20 24 -7 45 -18 48
-22 3 -5 24 0 48 10 23 11 51 20 62 20 38 0 90 -20 115 -44 l25 -24 33 25 c24
18 47 26 81 26 70 2 107 -18 132 -69 31 -66 29 -105 -10 -160 l-34 -46 23 -47
c23 -51 28 -100 12 -141 -7 -18 -4 -32 11 -57 26 -45 26 -118 0 -171 -20 -40
-20 -42 -2 -69 23 -34 24 -75 4 -134 -14 -41 -14 -48 0 -75 19 -37 19 -65 0
-110 -13 -32 -13 -39 6 -87 21 -54 20 -98 -4 -132 -11 -15 -11 -23 4 -52 17
-34 17 -69 -2 -130 -8 -24 -7 -39 4 -60 22 -43 26 -95 10 -143 -12 -34 -12
-48 -2 -72 14 -35 15 -129 1 -153 -5 -11 -4 -36 5 -68 15 -60 10 -95 -19 -133
l-21 -26 31 -58 c48 -87 39 -173 -24 -217 -61 -42 -129 -36 -195 16 l-37 30
-23 -25 c-55 -59 -119 -69 -184 -30 l-40 25 -26 -25 c-45 -43 -115 -40 -180 7
-13 10 -26 8 -62 -10 -52 -25 -89 -23 -143 10 -30 18 -31 18 -69 -1 -49 -25
-90 -25 -139 0 -38 19 -39 19 -77 0 -49 -25 -82 -25 -136 1 -40 20 -45 20 -68
5 -15 -10 -46 -16 -78 -16 -43 0 -63 6 -100 31 l-47 31 -26 -21 c-34 -27 -86
-27 -141 0 -79 38 -95 122 -45 222 l28 56 -24 25 c-36 35 -43 121 -14 168 18
30 19 36 6 60 -24 45 -29 112 -11 148 15 29 15 33 -3 63 -31 51 -24 131 14
170 15 15 15 19 -4 49 -26 42 -25 69 1 102 20 26 21 29 6 64 -27 64 -28 79 -8
137 18 52 19 60 6 85 -19 36 -22 109 -6 139 10 18 10 29 -3 56 -22 45 -20 103
4 149 16 29 18 41 10 52 -32 38 -29 156 5 184 10 8 10 18 -1 48 -19 54 -17 99
8 143 21 38 21 39 2 60 -14 16 -19 36 -19 79 1 68 17 93 82 122 51 23 104 13
152 -27 l29 -25 21 29 c38 52 146 67 191 26 18 -16 21 -16 47 3 57 39 93 41
157 7z"/>
<path d="M589 2733 c0 -104 -2 -217 -4 -253 -1 -36 -6 -373 -9 -750 -4 -377
-9 -769 -12 -871 l-5 -186 802 -2 802 -1 -7 332 c-3 183 -8 605 -12 938 -3
333 -7 648 -9 700 -2 52 -4 137 -4 188 l-1 92 -770 0 -770 0 -1 -187z m1496
134 c4 -22 9 -339 21 -1524 l7 -623 -752 0 -751 0 5 193 c2 105 7 460 10 787
6 672 15 1172 21 1181 2 4 325 7 719 7 l715 0 5 -21z"/>
<path d="M662 2599 c-1 -293 -10 -1045 -18 -1527 l-5 -312 725 0 725 0 -4 68
c-3 64 -18 1457 -19 1844 -1 104 -3 188 -6 188 -12 0 -35 -21 -36 -32 -1 -7
-2 -18 -3 -24 -1 -7 -80 -11 -255 -12 -231 -1 -255 1 -259 16 -4 16 -5 16 -6
0 -1 -16 -24 -17 -291 -17 -162 1 -293 5 -296 10 -3 5 -10 6 -16 2 -7 -3 -53
-8 -103 -9 l-92 -3 -20 36 -21 36 0 -264z m1344 116 c1 -33 5 -359 9 -725 3
-366 8 -774 10 -907 l4 -243 -102 0 c-623 -1 -1221 1 -1225 5 -4 4 -3 524 3
905 2 118 4 379 6 580 1 201 4 384 7 407 l4 42 642 -2 641 -2 1 -60z"/>
<path d="M1060 2371 c-33 -27 -34 -31 -36 -107 -2 -61 -4 -305 -3 -424 0 -8
-1 -83 -2 -167 -1 -130 1 -155 17 -182 23 -39 50 -51 39 -19 -17 57 -20 126
-18 462 2 368 6 414 42 417 9 1 138 3 286 5 l270 2 33 -31 32 -31 0 27 c0 16
-10 38 -24 52 l-24 24 -289 0 -289 0 -34 -28z"/>
<path d="M1307 2216 c-4 -9 2 -12 16 -11 32 4 33 4 17 15 -20 13 -27 12 -33
-4z"/>
<path d="M1416 2222 c-4 -7 -2 -12 4 -12 6 0 9 -4 6 -8 -2 -4 6 -8 20 -8 13 0
24 3 24 6 0 4 16 6 35 5 19 0 35 3 35 8 0 9 -77 4 -87 -7 -3 -3 -11 2 -18 11
-8 11 -14 13 -19 5z"/>
<path d="M1573 2220 c-32 -13 -29 -17 7 -12 16 2 27 8 24 13 -3 5 -6 9 -7 8
-1 0 -12 -4 -24 -9z"/>
<path d="M1685 2220 c3 -5 8 -10 11 -10 2 0 4 5 4 10 0 6 -5 10 -11 10 -5 0
-7 -4 -4 -10z"/>
<path d="M1193 2213 c-7 -2 -10 -10 -7 -18 3 -7 7 -56 8 -109 1 -52 5 -98 9
-103 4 -4 102 -8 217 -8 l209 -1 25 -29 c21 -24 26 -26 31 -13 9 23 -23 75
-49 82 -12 3 -105 5 -208 5 -102 1 -193 4 -202 7 -13 5 -15 20 -12 95 5 88 2
100 -21 92z"/>
<path d="M1640 2209 c0 -5 5 -7 10 -4 6 3 10 8 10 11 0 2 -4 4 -10 4 -5 0 -10
-5 -10 -11z"/>
<path d="M1620 2196 c0 -2 8 -10 18 -17 15 -13 16 -12 3 4 -13 16 -21 21 -21
13z"/>
<path d="M1259 1848 c-7 -13 -4 -46 3 -42 4 3 6 9 3 14 -3 5 3 13 12 19 17 10
17 10 1 11 -10 0 -19 -1 -19 -2z"/>
<path d="M1310 1835 c0 -8 2 -15 4 -15 2 0 6 7 10 15 3 8 1 15 -4 15 -6 0 -10
-7 -10 -15z"/>
<path d="M1376 1842 c-3 -4 4 -9 15 -9 23 -2 25 3 4 10 -8 4 -16 3 -19 -1z"/>
<path d="M1615 1840 c-4 -6 -4 -14 -1 -17 3 -4 6 0 6 8 0 12 2 12 10 -1 5 -8
12 -12 15 -9 3 4 -1 12 -9 18 -10 9 -16 9 -21 1z"/>
<path d="M1192 1710 c1 -101 5 -133 16 -143 10 -8 82 -12 244 -13 202 -1 231
-4 248 -19 11 -10 19 -20 18 -24 0 -3 0 -15 1 -26 1 -18 3 -17 14 5 17 31 4
75 -27 93 -14 8 -97 14 -256 17 l-235 5 -1 105 c-2 131 -2 130 -14 130 -6 0
-9 -52 -8 -130z"/>
<path d="M1445 1830 c3 -5 8 -10 11 -10 2 0 4 5 4 10 0 6 -5 10 -11 10 -5 0
-7 -4 -4 -10z"/>
<path d="M1304 1779 c-3 -6 -3 -13 0 -16 3 -4 6 -1 6 5 0 6 7 9 15 6 8 -4 15
-4 15 -1 0 11 -30 16 -36 6z"/>
<path d="M1896 1637 c3 -10 9 -15 12 -12 3 3 0 11 -7 18 -10 9 -11 8 -5 -6z"/>
<path d="M1899 1583 c-13 -16 -12 -17 4 -4 9 7 17 15 17 17 0 8 -8 3 -21 -13z"/>
<path d="M1420 1410 c-9 -6 -10 -10 -3 -10 6 0 15 5 18 10 8 12 4 12 -15 0z"/>
<path d="M1585 1400 c3 -5 8 -10 11 -10 2 0 4 5 4 10 0 6 -5 10 -11 10 -5 0
-7 -4 -4 -10z"/>
<path d="M1623 1380 c-11 -16 -10 -18 2 -14 8 4 15 12 15 20 0 19 -3 18 -17
-6z"/>
<path d="M1305 1350 c3 -5 8 -10 11 -10 2 0 4 5 4 10 0 6 -5 10 -11 10 -5 0
-7 -4 -4 -10z"/>
<path d="M1677 1349 c7 -7 15 -10 18 -7 3 3 -2 9 -12 12 -14 6 -15 5 -6 -5z"/>
<path d="M1000 1170 c-9 -6 -10 -10 -3 -10 6 0 15 5 18 10 8 12 4 12 -15 0z"/>
<path d="M866 1107 c3 -10 9 -15 12 -12 3 3 0 11 -7 18 -10 9 -11 8 -5 -6z"/>
<path d="M1503 1085 c-3 -9 -3 -18 -1 -21 3 -3 8 4 11 16 6 23 -1 27 -10 5z"/>
<path d="M1271 1047 c-1 -11 -6 -15 -13 -11 -7 5 -8 3 -3 -5 10 -16 29 2 22
21 -4 8 -6 7 -6 -5z"/>
<path d="M1680 940 c-9 -6 -10 -10 -3 -10 6 0 15 5 18 10 8 12 4 12 -15 0z"/>
<path d="M705 2852 c-16 -4 -13 -7 15 -16 19 -7 39 -10 45 -7 23 12 61 9 80
-7 11 -9 17 -13 12 -8 -4 5 0 17 8 26 14 16 11 17 -47 13 -35 -2 -68 -6 -75
-8 -6 -2 -13 -1 -15 3 -2 4 -12 6 -23 4z"/>
<path d="M899 2843 c-13 -15 -12 -15 11 -3 34 17 36 20 18 20 -9 0 -22 -7 -29
-17z"/>
<path d="M963 2845 c8 -9 18 -10 29 -4 12 7 28 4 49 -7 17 -8 28 -11 25 -5 -6
9 36 17 67 12 4 0 7 2 7 7 0 4 -42 8 -94 8 -76 1 -92 -1 -83 -11z"/>
<path d="M1235 2850 c-19 -8 -19 -9 3 -9 12 -1 22 4 22 9 0 6 -1 10 -2 9 -2 0
-12 -4 -23 -9z"/>
<path d="M1270 2848 c0 -9 0 -9 48 -11 17 -1 32 2 32 7 0 5 7 3 15 -4 11 -10
18 -10 29 -1 11 9 15 9 19 -1 4 -9 6 -7 6 4 1 11 -6 16 -19 15 -11 -1 -20 -5
-20 -10 0 -4 -6 -5 -12 0 -17 10 -98 11 -98 1z"/>
<path d="M1435 2850 c-4 -6 3 -10 14 -10 25 0 27 6 6 13 -8 4 -17 2 -20 -3z"/>
<path d="M1484 2848 c-4 -7 -4 -10 0 -6 4 3 23 0 42 -8 20 -8 34 -10 34 -4 0
5 7 10 16 10 8 0 13 4 9 10 -4 6 -14 5 -29 -1 -17 -8 -29 -8 -44 0 -16 8 -23
8 -28 -1z"/>
<path d="M1605 2849 c4 -5 15 -14 27 -20 15 -8 19 -8 14 0 -4 6 -2 11 5 11 22
0 0 13 -26 16 -14 1 -23 -2 -20 -7z"/>
<path d="M1690 2849 l-25 -7 25 -2 c14 -1 29 -2 34 -1 5 1 6 -6 2 -15 -5 -13
-4 -14 7 -6 7 6 22 11 32 11 22 -1 65 8 72 14 2 3 -8 7 -22 9 -14 3 -25 2 -25
-3 0 -4 -8 -6 -17 -4 -10 2 -18 4 -18 6 0 5 -43 5 -65 -2z"/>
<path d="M1880 2848 c0 -4 7 -8 15 -8 8 0 15 4 15 8 0 5 -7 9 -15 9 -8 0 -15
-4 -15 -9z"/>
<path d="M1970 2853 c8 -3 22 -11 30 -17 13 -10 13 -9 1 7 -7 9 -21 17 -30 16
-13 0 -14 -1 -1 -6z"/>
<path d="M1156 2841 c9 -9 34 -9 34 -1 0 5 -9 8 -20 7 -10 -1 -17 -3 -14 -6z"/>
</g>
</svg>
