<?xml version="1.0" standalone="no"?>
<!DOCTYPE svg PUBLIC "-//W3C//DTD SVG 20010904//EN"
 "http://www.w3.org/TR/2001/REC-SVG-20010904/DTD/svg10.dtd">
<svg version="1.0" xmlns="http://www.w3.org/2000/svg"
 width="270.000000pt" height="357.000000pt" viewBox="0 0 270.000000 357.000000"
 preserveAspectRatio="xMidYMid meet">
<metadata>
Created by potrace 1.15, written by Peter Selinger 2001-2017
</metadata>
<g transform="translate(0.000000,357.000000) scale(0.100000,-0.100000)"
fill="#000000" stroke="none">
<path d="M970 3084 c-28 -12 -43 -13 -71 -5 -57 17 -110 13 -162 -12 l-48 -24
-58 21 c-51 18 -63 18 -100 7 -48 -14 -115 -70 -138 -115 -12 -23 -14 -49 -10
-111 2 -44 0 -136 -5 -205 -18 -220 -19 -297 -20 -785 0 -181 0 -368 -1 -415
-1 -47 0 -146 2 -220 2 -74 0 -158 -4 -185 -5 -37 -3 -61 9 -89 20 -47 20 -69
1 -121 -39 -109 5 -224 106 -275 41 -22 112 -26 154 -10 21 8 36 5 73 -12 31
-15 64 -22 97 -21 49 2 90 2 220 2 36 0 83 0 105 0 22 0 68 -1 103 -1 34 0 78
1 97 3 19 1 56 -3 82 -11 38 -11 55 -11 100 -1 46 11 59 11 92 -3 49 -21 106
-20 150 1 30 14 42 14 74 5 61 -19 113 -14 164 13 l47 25 41 -21 c99 -52 194
-28 256 65 47 71 53 127 24 207 -20 54 -22 67 -12 108 10 44 10 195 -2 751 -4
166 -5 315 -4 745 0 98 -17 265 -30 297 -10 24 -8 35 13 74 32 59 32 114 1
179 -51 108 -152 151 -256 109 -39 -16 -43 -15 -83 2 -25 12 -61 18 -92 18
-80 -3 -136 -3 -205 -2 -36 1 -78 0 -95 -1 -16 -2 -57 0 -90 4 -35 4 -76 3
-98 -3 -29 -8 -46 -7 -72 4 -41 17 -90 18 -134 3 -25 -9 -40 -8 -71 5 -50 20
-104 20 -150 0z m144 -69 l48 -25 28 20 c37 26 76 25 132 -3 43 -22 45 -22 74
-5 48 29 143 20 166 -16 4 -7 13 -5 25 6 31 28 83 36 130 20 24 -7 45 -18 48
-22 3 -5 24 0 48 10 23 11 51 20 62 20 38 0 90 -20 115 -44 l25 -24 33 25 c24
18 47 26 81 26 70 2 107 -18 132 -69 31 -66 29 -105 -10 -160 l-34 -46 23 -47
c23 -51 28 -100 12 -141 -7 -18 -4 -32 11 -57 26 -45 26 -118 0 -171 -20 -40
-20 -42 -2 -69 23 -34 24 -75 4 -134 -14 -41 -14 -48 0 -75 19 -37 19 -65 0
-110 -13 -32 -13 -39 6 -87 21 -54 20 -98 -4 -132 -11 -15 -11 -23 4 -52 17
-34 17 -69 -2 -130 -8 -24 -7 -39 4 -60 22 -43 26 -95 10 -143 -12 -34 -12
-48 -2 -72 14 -35 15 -129 1 -153 -5 -11 -4 -36 5 -68 15 -60 10 -95 -19 -133
l-21 -26 31 -58 c48 -87 39 -173 -24 -217 -61 -42 -129 -36 -195 16 l-37 30
-23 -25 c-55 -59 -119 -69 -184 -30 l-40 25 -26 -25 c-45 -43 -115 -40 -180 7
-13 10 -26 8 -62 -10 -52 -25 -89 -23 -143 10 -30 18 -31 18 -69 -1 -49 -25
-90 -25 -139 0 -38 19 -39 19 -77 0 -49 -25 -82 -25 -136 1 -40 20 -45 20 -68
5 -15 -10 -46 -16 -78 -16 -43 0 -63 6 -100 31 l-47 31 -26 -21 c-34 -27 -86
-27 -141 0 -79 38 -95 122 -45 222 l28 56 -24 25 c-36 35 -43 121 -14 168 18
30 19 36 6 60 -24 45 -29 112 -11 148 15 29 15 33 -3 63 -31 51 -24 131 14
170 15 15 15 19 -4 49 -26 42 -25 69 1 102 20 26 21 29 6 64 -27 64 -28 79 -8
137 18 52 19 60 6 85 -19 36 -22 109 -6 139 10 18 10 29 -3 56 -22 45 -20 103
4 149 16 29 18 41 10 52 -32 38 -29 156 5 184 10 8 10 18 -1 48 -19 54 -17 99
8 143 21 38 21 39 2 60 -14 16 -19 36 -19 79 1 68 17 93 82 122 51 23 104 13
152 -27 l29 -25 21 29 c38 52 146 67 191 26 18 -16 21 -16 47 3 57 39 93 41
157 7z"/>
<path d="M589 2733 c0 -104 -2 -217 -4 -253 -1 -36 -6 -373 -9 -750 -4 -377
-9 -769 -12 -871 l-5 -186 802 -2 802 -1 -7 332 c-3 183 -8 605 -12 938 -3
333 -7 648 -9 700 -2 52 -4 137 -4 188 l-1 92 -770 0 -770 0 -1 -187z m1496
134 c4 -22 9 -339 21 -1524 l7 -623 -752 0 -751 0 4 178 c3 97 8 443 11 767 6
698 15 1207 21 1216 2 4 325 7 719 7 l715 0 5 -21z"/>
<path d="M662 2584 c-1 -307 -9 -1024 -18 -1512 l-5 -312 725 0 725 0 -4 68
c-3 64 -18 1456 -19 1844 -1 104 -3 188 -6 188 -12 0 -35 -21 -36 -32 -1 -7
-2 -18 -3 -24 -1 -7 -80 -11 -256 -12 -233 -1 -255 1 -256 16 0 16 -1 16 -7 1
-6 -15 -37 -17 -294 -17 -168 0 -290 4 -294 9 -3 5 -10 6 -16 2 -7 -3 -53 -8
-103 -9 l-92 -3 -20 36 -21 36 0 -279z m1344 131 c1 -33 5 -359 9 -725 3 -366
8 -774 10 -907 l4 -243 -102 0 c-623 -1 -1221 1 -1225 5 -4 4 -3 524 3 905 2
118 4 379 6 580 1 201 4 384 7 407 l4 42 642 -2 641 -2 1 -60z"/>
<path d="M995 2387 c-38 -32 -36 -89 6 -202 18 -49 32 -93 31 -98 -1 -4 11
-36 27 -71 16 -36 26 -67 23 -71 -4 -3 -2 -9 4 -13 6 -4 15 -25 21 -47 6 -22
25 -78 43 -125 17 -47 33 -92 35 -100 2 -8 15 -45 28 -82 13 -37 22 -70 19
-73 -3 -3 0 -5 6 -5 7 0 12 -8 12 -17 0 -9 3 -14 6 -10 3 3 15 -3 27 -14 25
-23 45 -26 23 -3 -17 16 -66 117 -66 134 0 10 -35 120 -50 155 -21 51 -60 161
-66 188 -1 4 -3 9 -4 12 -4 8 -7 24 -9 41 0 8 -5 13 -10 10 -5 -4 -12 13 -16
36 -4 24 -11 48 -15 53 -4 6 -13 28 -19 50 -7 22 -17 49 -22 60 -6 12 -11 27
-12 35 -2 8 -5 20 -8 25 -10 20 -10 74 1 94 14 27 70 29 93 4 8 -10 16 -20 16
-23 0 -3 5 -18 12 -35 7 -16 13 -32 13 -35 1 -3 6 -18 13 -35 18 -49 43 -136
43 -151 0 -8 5 -14 10 -14 6 0 10 -9 10 -20 0 -11 6 -37 14 -57 8 -21 35 -103
61 -183 50 -157 69 -189 98 -167 10 7 19 19 21 27 2 8 6 23 10 32 4 9 9 22 10
30 2 7 8 26 14 41 7 16 12 34 12 41 0 6 5 17 12 24 7 7 9 12 5 12 -4 0 0 17 9
38 9 20 17 46 19 57 2 11 12 45 23 75 33 93 74 222 78 247 7 38 37 95 57 107
34 22 117 -54 84 -77 -8 -5 -6 -7 7 -5 27 4 30 44 6 83 -23 37 -38 45 -85 45
-46 0 -79 -42 -105 -133 -20 -67 -117 -365 -140 -432 -6 -16 -13 -39 -15 -49
-12 -54 -38 -117 -48 -113 -6 2 -23 46 -38 98 -15 52 -33 112 -41 134 -25 68
-39 109 -43 125 -2 8 -10 35 -19 60 -9 25 -16 51 -16 58 0 7 -9 33 -20 58 -12
24 -18 49 -15 54 3 4 -2 15 -10 24 -9 8 -15 17 -14 18 5 8 -16 56 -34 76 -28
30 -87 30 -122 -1z"/>
<path d="M1740 2255 c-7 -8 -9 -15 -6 -15 4 0 1 -10 -5 -22 -11 -21 -11 -22 5
-9 9 8 15 20 12 26 -2 7 1 18 7 24 6 6 8 11 5 11 -3 0 -11 -7 -18 -15z"/>
<path d="M1715 2180 c3 -5 8 -10 11 -10 2 0 4 5 4 10 0 6 -5 10 -11 10 -5 0
-7 -4 -4 -10z"/>
<path d="M1703 2151 c0 -11 5 -18 9 -15 4 3 5 11 1 19 -7 21 -12 19 -10 -4z"/>
<path d="M1684 2113 c2 -3 0 -18 -5 -36 -10 -34 1 -26 18 14 9 21 8 26 -3 26
-8 0 -12 -2 -10 -4z"/>
<path d="M1660 2025 c-6 -8 -10 -19 -8 -24 1 -6 8 1 15 14 13 28 11 31 -7 10z"/>
<path d="M1632 1950 c-15 -32 -16 -41 -4 -37 4 1 6 6 4 10 -1 4 4 15 13 23 16
16 20 34 7 34 -4 0 -13 -13 -20 -30z"/>
<path d="M1606 1875 c-9 -26 -7 -32 5 -12 6 10 9 21 6 23 -2 3 -7 -2 -11 -11z"/>
<path d="M1585 1820 c-3 -5 -1 -10 4 -10 6 0 11 5 11 10 0 6 -2 10 -4 10 -3 0
-8 -4 -11 -10z"/>
<path d="M1575 1786 c-3 -9 -7 -23 -10 -31 -2 -8 -2 -15 1 -15 7 0 25 52 20
58 -3 3 -8 -3 -11 -12z"/>
<path d="M1547 1713 c-4 -3 -7 -13 -7 -22 1 -13 3 -13 11 2 11 19 8 33 -4 20z"/>
<path d="M1896 1637 c3 -10 9 -15 12 -12 3 3 0 11 -7 18 -10 9 -11 8 -5 -6z"/>
<path d="M1506 1598 c-3 -7 -9 -28 -15 -45 -5 -18 -6 -33 -1 -33 13 0 19 14
24 54 5 35 -1 49 -8 24z"/>
<path d="M1899 1583 c-13 -16 -12 -17 4 -4 9 7 17 15 17 17 0 8 -8 3 -21 -13z"/>
<path d="M1755 1560 c-3 -6 1 -7 9 -4 18 7 21 14 7 14 -6 0 -13 -4 -16 -10z"/>
<path d="M1366 1503 c-6 -14 -5 -15 5 -6 7 7 10 15 7 18 -3 3 -9 -2 -12 -12z"/>
<path d="M1420 1410 c-8 -5 -10 -10 -5 -10 6 0 17 5 25 10 8 5 11 10 5 10 -5
0 -17 -5 -25 -10z"/>
<path d="M1000 1170 c-9 -6 -10 -10 -3 -10 6 0 15 5 18 10 8 12 4 12 -15 0z"/>
<path d="M866 1107 c3 -10 9 -15 12 -12 3 3 0 11 -7 18 -10 9 -11 8 -5 -6z"/>
<path d="M1503 1085 c-3 -9 -3 -18 -1 -21 3 -3 8 4 11 16 6 23 -1 27 -10 5z"/>
<path d="M1271 1047 c-1 -11 -6 -15 -13 -11 -7 5 -8 3 -3 -5 10 -16 29 2 22
21 -4 8 -6 7 -6 -5z"/>
<path d="M1680 940 c-9 -6 -10 -10 -3 -10 6 0 15 5 18 10 8 12 4 12 -15 0z"/>
<path d="M705 2852 c-16 -4 -13 -7 15 -16 19 -7 39 -10 45 -7 23 12 61 9 80
-7 19 -16 19 -16 6 1 -11 14 -11 17 2 17 9 0 18 4 21 8 5 8 -106 6 -131 -3 -6
-2 -13 -1 -15 3 -2 4 -12 6 -23 4z"/>
<path d="M899 2843 c-13 -15 -12 -15 11 -3 34 17 36 20 18 20 -9 0 -22 -7 -29
-17z"/>
<path d="M953 2845 c0 -13 27 -13 47 0 5 3 24 -1 41 -10 17 -9 28 -12 25 -6
-6 9 36 17 67 12 4 0 7 2 7 7 0 4 -42 8 -93 8 -71 1 -94 -2 -94 -11z"/>
<path d="M1235 2850 c-19 -8 -19 -9 3 -9 12 -1 22 4 22 9 0 6 -1 10 -2 9 -2 0
-12 -4 -23 -9z"/>
<path d="M1270 2849 c0 -4 7 -9 15 -13 8 -3 15 -2 15 2 0 4 16 7 36 6 19 -1
32 1 29 4 -9 9 -95 10 -95 1z"/>
<path d="M1380 2847 c0 -5 6 -7 14 -4 8 3 17 1 20 -6 2 -7 5 -5 5 5 1 11 -6
16 -19 15 -11 -1 -20 -5 -20 -10z"/>
<path d="M1435 2850 c-4 -6 3 -10 14 -10 25 0 27 6 6 13 -8 4 -17 2 -20 -3z"/>
<path d="M1486 2852 c-6 -10 2 -12 66 -15 35 -1 44 1 36 10 -7 9 -16 9 -32 1
-17 -7 -30 -7 -44 1 -11 6 -23 7 -26 3z"/>
<path d="M1605 2849 c4 -5 15 -14 27 -20 15 -8 19 -8 14 0 -4 6 -2 11 5 11 22
0 0 13 -26 16 -14 1 -23 -2 -20 -7z"/>
<path d="M1690 2849 c-21 -6 -22 -7 -5 -9 11 -1 29 -3 40 -6 31 -6 58 -6 84 0
34 8 36 13 6 18 -14 3 -25 2 -25 -3 0 -4 -8 -6 -17 -4 -10 2 -18 4 -18 6 0 5
-43 5 -65 -2z"/>
<path d="M1855 2850 c-3 -5 -1 -10 4 -10 6 0 11 5 11 10 0 6 -2 10 -4 10 -3 0
-8 -4 -11 -10z"/>
<path d="M1880 2848 c0 -4 7 -8 15 -8 8 0 15 4 15 8 0 5 -7 9 -15 9 -8 0 -15
-4 -15 -9z"/>
<path d="M1970 2853 c8 -3 22 -11 30 -17 13 -10 13 -9 1 7 -7 9 -21 17 -30 16
-13 0 -14 -1 -1 -6z"/>
<path d="M1156 2841 c9 -9 34 -9 34 -1 0 5 -9 8 -20 7 -10 -1 -17 -3 -14 -6z"/>
</g>
</svg>
