<?xml version="1.0" standalone="no"?>
<!DOCTYPE svg PUBLIC "-//W3C//DTD SVG 20010904//EN"
 "http://www.w3.org/TR/2001/REC-SVG-20010904/DTD/svg10.dtd">
<svg version="1.0" xmlns="http://www.w3.org/2000/svg"
 width="270.000000pt" height="357.000000pt" viewBox="0 0 270.000000 357.000000"
 preserveAspectRatio="xMidYMid meet">
<metadata>
Created by potrace 1.15, written by Peter Selinger 2001-2017
</metadata>
<g transform="translate(0.000000,357.000000) scale(0.100000,-0.100000)"
fill="#000000" stroke="none">
<path d="M970 3084 c-28 -12 -43 -13 -71 -5 -57 17 -110 13 -162 -12 l-48 -24
-58 21 c-51 18 -63 18 -100 7 -48 -14 -115 -70 -138 -115 -12 -23 -14 -49 -10
-111 2 -44 0 -136 -5 -205 -18 -220 -19 -297 -20 -785 0 -181 0 -368 -1 -415
-1 -47 0 -146 2 -220 2 -74 0 -158 -4 -185 -5 -37 -3 -61 9 -89 20 -47 20 -69
1 -121 -39 -109 5 -224 106 -275 41 -22 112 -26 154 -10 21 8 36 5 73 -12 31
-15 64 -22 97 -21 49 2 90 2 220 2 36 0 83 0 105 0 22 0 68 -1 103 -1 34 0 78
1 97 3 19 1 56 -3 82 -11 38 -11 55 -11 100 -1 46 11 59 11 92 -3 49 -21 106
-20 150 1 30 14 42 14 74 5 61 -19 113 -14 164 13 l47 25 41 -21 c99 -52 194
-28 256 65 47 71 53 127 24 207 -20 54 -22 67 -12 108 10 44 10 195 -2 751 -4
166 -5 315 -4 745 0 98 -17 265 -30 297 -10 24 -8 35 13 74 32 59 32 114 1
179 -51 108 -152 151 -256 109 -39 -16 -43 -15 -83 2 -25 12 -61 18 -92 18
-80 -3 -136 -3 -205 -2 -36 1 -78 0 -95 -1 -16 -2 -57 0 -90 4 -35 4 -76 3
-98 -3 -29 -8 -46 -7 -72 4 -41 17 -90 18 -134 3 -25 -9 -40 -8 -71 5 -50 20
-104 20 -150 0z m144 -69 l48 -25 28 20 c37 26 76 25 132 -3 43 -22 45 -22 74
-5 48 29 143 20 166 -16 4 -7 13 -5 25 6 31 28 83 36 130 20 24 -7 45 -18 48
-22 3 -5 24 0 48 10 23 11 51 20 62 20 38 0 90 -20 115 -44 l25 -24 33 25 c24
18 47 26 81 26 70 2 107 -18 132 -69 31 -66 29 -105 -10 -160 l-34 -46 23 -47
c23 -51 28 -100 12 -141 -7 -18 -4 -32 11 -57 26 -45 26 -118 0 -171 -20 -40
-20 -42 -2 -69 23 -34 24 -75 4 -134 -14 -41 -14 -48 0 -75 19 -37 19 -65 0
-110 -13 -32 -13 -39 6 -87 21 -54 20 -98 -4 -132 -11 -15 -11 -23 4 -52 17
-34 17 -69 -2 -130 -8 -24 -7 -39 4 -60 22 -43 26 -95 10 -143 -12 -34 -12
-48 -2 -72 14 -35 15 -129 1 -153 -5 -11 -4 -36 5 -68 15 -60 10 -95 -19 -133
l-21 -26 31 -58 c48 -87 39 -173 -24 -217 -61 -42 -129 -36 -195 16 l-37 30
-23 -25 c-55 -59 -119 -69 -184 -30 l-40 25 -26 -25 c-45 -43 -115 -40 -180 7
-13 10 -26 8 -62 -10 -52 -25 -89 -23 -143 10 -30 18 -31 18 -69 -1 -49 -25
-90 -25 -139 0 -38 19 -39 19 -77 0 -49 -25 -82 -25 -136 1 -40 20 -45 20 -68
5 -15 -10 -46 -16 -78 -16 -43 0 -63 6 -100 31 l-47 31 -26 -21 c-34 -27 -86
-27 -141 0 -79 38 -95 122 -45 222 l28 56 -24 25 c-36 35 -43 121 -14 168 18
30 19 36 6 60 -24 45 -29 112 -11 148 15 29 15 33 -3 63 -31 51 -24 131 14
170 15 15 15 19 -4 49 -26 42 -25 69 1 102 20 26 21 29 6 64 -27 64 -28 79 -8
137 18 52 19 60 6 85 -19 36 -22 109 -6 139 10 18 10 29 -3 56 -22 45 -20 103
4 149 16 29 18 41 10 52 -32 38 -29 156 5 184 10 8 10 18 -1 48 -19 54 -17 99
8 143 21 38 21 39 2 60 -14 16 -19 36 -19 79 1 68 17 93 82 122 51 23 104 13
152 -27 l29 -25 21 29 c38 52 146 67 191 26 18 -16 21 -16 47 3 57 39 93 41
157 7z"/>
<path d="M589 2733 c0 -104 -2 -217 -4 -253 -1 -36 -6 -373 -9 -750 -4 -377
-9 -769 -12 -871 l-5 -186 802 -2 802 -1 -7 332 c-3 183 -8 605 -12 938 -3
333 -7 648 -9 700 -2 52 -4 137 -4 188 l-1 92 -770 0 -770 0 -1 -187z m1496
134 c4 -22 9 -339 21 -1524 l7 -623 -752 0 -751 0 4 178 c3 97 8 443 11 767 6
698 15 1207 21 1216 2 4 325 7 719 7 l715 0 5 -21z"/>
<path d="M662 2599 c-1 -293 -10 -1045 -18 -1527 l-5 -312 725 0 725 0 -4 68
c-3 64 -18 1457 -19 1844 -1 104 -3 188 -6 188 -12 0 -35 -21 -36 -32 -1 -7
-2 -18 -3 -24 -1 -7 -81 -11 -255 -12 -233 -1 -255 0 -259 16 -4 16 -5 16 -6
0 -1 -15 -26 -17 -291 -16 -163 0 -293 4 -296 9 -3 5 -10 6 -16 2 -7 -3 -53
-8 -103 -9 l-92 -3 -20 36 -21 36 0 -264z m1344 116 c1 -33 5 -359 9 -725 3
-366 8 -774 10 -907 l4 -243 -102 0 c-623 -1 -1221 1 -1225 5 -4 4 -3 524 3
905 2 118 4 379 6 580 1 201 4 384 7 407 l4 42 642 -2 641 -2 1 -60z"/>
<path d="M1004 2395 c-43 -29 -36 -89 17 -166 10 -14 16 -29 12 -33 -3 -3 -1
-6 5 -6 6 0 14 -9 17 -21 4 -11 25 -48 48 -82 23 -34 42 -66 42 -70 0 -4 5
-11 11 -15 16 -10 32 -45 29 -63 -2 -13 -78 -135 -103 -164 -28 -33 -120 -186
-130 -214 -18 -52 -15 -91 10 -112 28 -25 32 -24 23 9 -4 15 -7 37 -6 50 1 25
36 96 69 139 29 38 78 112 136 205 52 84 52 85 -1 154 -12 17 -20 34 -16 37 3
4 1 7 -6 7 -7 0 -10 4 -7 9 4 5 2 11 -3 13 -11 4 -79 109 -113 177 -30 58 -35
90 -16 109 15 15 58 15 79 -1 20 -16 82 -107 73 -107 -4 0 0 -8 9 -18 8 -9 22
-28 29 -42 79 -149 115 -176 151 -113 7 11 21 33 31 49 11 16 49 74 84 129 36
55 70 103 76 107 35 24 93 -13 83 -52 -3 -11 0 -23 5 -27 6 -3 8 -1 4 5 -3 6
0 17 8 24 12 12 12 19 -1 48 -17 42 -28 50 -72 50 -28 0 -43 -8 -78 -46 -24
-26 -43 -51 -43 -56 0 -5 -22 -43 -50 -84 -27 -41 -50 -78 -50 -82 0 -5 -11
-19 -24 -31 l-24 -23 -25 39 c-13 21 -50 81 -81 134 -75 128 -95 149 -143 149
-21 0 -48 -7 -59 -15z"/>
<path d="M1580 2089 c0 -5 5 -7 10 -4 6 3 10 8 10 11 0 2 -4 4 -10 4 -5 0 -10
-5 -10 -11z"/>
<path d="M1422 1934 c-15 -16 -15 -21 -2 -37 23 -28 90 -135 90 -145 0 -6 4
-12 8 -14 13 -5 131 -205 138 -233 3 -14 10 -22 15 -19 17 10 9 59 -17 104
-15 25 -38 65 -52 90 -14 25 -28 47 -32 50 -4 3 -22 30 -39 60 -81 139 -96
158 -109 144z"/>
<path d="M1330 1771 c0 -11 7 -26 15 -35 8 -8 15 -17 15 -19 0 -2 21 -39 48
-81 26 -43 52 -85 57 -94 42 -69 83 -117 92 -108 3 2 -8 24 -24 48 -15 23 -32
52 -39 63 -6 11 -36 61 -67 111 -31 50 -57 96 -57 102 0 6 -9 16 -20 22 -17 9
-20 8 -20 -9z"/>
<path d="M1896 1637 c3 -10 9 -15 12 -12 3 3 0 11 -7 18 -10 9 -11 8 -5 -6z"/>
<path d="M1210 1589 c0 -5 5 -7 10 -4 6 3 10 8 10 11 0 2 -4 4 -10 4 -5 0 -10
-5 -10 -11z"/>
<path d="M1899 1583 c-13 -16 -12 -17 4 -4 9 7 17 15 17 17 0 8 -8 3 -21 -13z"/>
<path d="M1755 1560 c-3 -6 1 -7 9 -4 18 7 21 14 7 14 -6 0 -13 -4 -16 -10z"/>
<path d="M1623 1380 c-11 -16 -10 -18 2 -14 8 4 15 12 15 20 0 19 -3 18 -17
-6z"/>
<path d="M1677 1349 c7 -7 15 -10 18 -7 3 3 -2 9 -12 12 -14 6 -15 5 -6 -5z"/>
<path d="M1151 1324 c0 -11 3 -14 6 -6 3 7 2 16 -1 19 -3 4 -6 -2 -5 -13z"/>
<path d="M1000 1170 c-9 -6 -10 -10 -3 -10 6 0 15 5 18 10 8 12 4 12 -15 0z"/>
<path d="M866 1107 c3 -10 9 -15 12 -12 3 3 0 11 -7 18 -10 9 -11 8 -5 -6z"/>
<path d="M1503 1085 c-3 -9 -3 -18 -1 -21 3 -3 8 4 11 16 6 23 -1 27 -10 5z"/>
<path d="M1271 1047 c-1 -11 -6 -15 -13 -11 -7 5 -8 3 -3 -5 10 -16 29 2 22
21 -4 8 -6 7 -6 -5z"/>
<path d="M705 2852 c-16 -4 -13 -7 15 -16 19 -7 39 -10 45 -7 23 12 61 9 80
-7 19 -16 19 -16 6 1 -11 14 -11 17 2 17 9 0 18 4 21 8 5 8 -64 7 -121 -2 -12
-2 -24 0 -25 3 -2 4 -12 5 -23 3z"/>
<path d="M899 2843 c-13 -15 -12 -15 11 -3 34 17 36 20 18 20 -9 0 -22 -7 -29
-17z"/>
<path d="M953 2845 c0 -13 27 -13 47 0 5 3 24 -1 41 -10 17 -9 28 -12 25 -6
-5 7 4 11 23 12 17 1 37 2 44 3 6 1 17 0 22 -3 18 -10 35 -9 35 1 0 6 -6 8
-14 5 -8 -3 -17 -3 -21 1 -3 4 -50 7 -104 8 -74 1 -98 -2 -98 -11z"/>
<path d="M1235 2850 c-19 -8 -19 -9 3 -9 12 -1 22 4 22 9 0 6 -1 10 -2 9 -2 0
-12 -4 -23 -9z"/>
<path d="M1270 2849 c0 -4 13 -7 29 -7 15 1 33 -2 40 -6 6 -4 11 -2 11 5 0 8
4 8 13 1 8 -7 18 -7 27 -2 9 6 17 5 22 -3 5 -8 8 -7 8 5 0 11 -7 16 -20 15
-11 -1 -20 -5 -20 -10 0 -4 -6 -5 -12 0 -16 10 -98 11 -98 2z"/>
<path d="M1435 2850 c-4 -6 3 -10 14 -10 25 0 27 6 6 13 -8 4 -17 2 -20 -3z"/>
<path d="M1486 2852 c-6 -10 3 -12 66 -15 36 -2 44 0 37 10 -8 9 -17 9 -33 1
-17 -7 -30 -7 -44 1 -11 6 -23 7 -26 3z"/>
<path d="M1621 2839 c24 -21 34 -25 24 -9 -3 6 -1 10 6 10 22 0 0 13 -27 16
l-26 3 23 -20z"/>
<path d="M1690 2849 c-21 -6 -22 -7 -5 -9 11 -1 29 -3 40 -6 31 -6 58 -6 84 0
34 8 36 13 6 18 -14 3 -25 2 -25 -3 0 -4 -8 -6 -17 -4 -10 2 -18 4 -18 6 0 5
-43 5 -65 -2z"/>
<path d="M1880 2848 c0 -4 7 -8 15 -8 8 0 15 4 15 8 0 5 -7 9 -15 9 -8 0 -15
-4 -15 -9z"/>
<path d="M1970 2853 c8 -3 22 -11 30 -17 13 -10 13 -9 1 7 -7 9 -21 17 -30 16
-13 0 -14 -1 -1 -6z"/>
</g>
</svg>
