<?xml version="1.0" standalone="no"?>
<!DOCTYPE svg PUBLIC "-//W3C//DTD SVG 20010904//EN"
 "http://www.w3.org/TR/2001/REC-SVG-20010904/DTD/svg10.dtd">
<svg version="1.0" xmlns="http://www.w3.org/2000/svg"
 width="270.000000pt" height="357.000000pt" viewBox="0 0 270.000000 357.000000"
 preserveAspectRatio="xMidYMid meet">
<metadata>
Created by potrace 1.15, written by Peter Selinger 2001-2017
</metadata>
<g transform="translate(0.000000,357.000000) scale(0.100000,-0.100000)"
fill="#000000" stroke="none">
<path d="M970 3084 c-28 -12 -43 -13 -71 -5 -57 17 -110 13 -162 -12 l-48 -24
-58 21 c-51 18 -63 18 -100 7 -48 -14 -115 -70 -138 -115 -12 -23 -14 -49 -10
-111 2 -44 0 -136 -5 -205 -18 -220 -19 -297 -20 -785 0 -181 0 -368 -1 -415
-1 -47 0 -146 2 -220 2 -74 0 -158 -4 -185 -5 -37 -3 -61 9 -89 20 -47 20 -69
1 -121 -39 -109 5 -224 106 -275 41 -22 112 -26 154 -10 21 8 36 5 73 -12 31
-15 64 -22 97 -21 49 2 90 2 220 2 36 0 83 0 105 0 22 0 68 -1 103 -1 34 0 78
1 97 3 19 1 56 -3 82 -11 38 -11 55 -11 100 -1 46 11 59 11 92 -3 49 -21 106
-20 150 1 30 14 42 14 74 5 61 -19 113 -14 164 13 l47 25 41 -21 c99 -52 194
-28 256 65 47 71 53 127 24 207 -20 54 -22 67 -12 108 10 44 10 195 -2 751 -4
166 -5 315 -4 745 0 98 -17 265 -30 297 -10 24 -8 35 13 74 32 59 32 114 1
179 -51 108 -152 151 -256 109 -39 -16 -43 -15 -83 2 -25 12 -61 18 -92 18
-80 -3 -136 -3 -205 -2 -36 1 -78 0 -95 -1 -16 -2 -57 0 -90 4 -35 4 -76 3
-98 -3 -29 -8 -46 -7 -72 4 -41 17 -90 18 -134 3 -25 -9 -40 -8 -71 5 -50 20
-104 20 -150 0z m144 -69 l48 -25 28 20 c37 26 76 25 132 -3 43 -22 45 -22 74
-5 48 29 143 20 166 -16 4 -7 13 -5 25 6 31 28 83 36 130 20 24 -7 45 -18 48
-22 3 -5 24 0 48 10 23 11 51 20 62 20 38 0 90 -20 115 -44 l25 -24 33 25 c24
18 47 26 81 26 70 2 107 -18 132 -69 31 -66 29 -105 -10 -160 l-34 -46 23 -47
c23 -51 28 -100 12 -141 -7 -18 -4 -32 11 -57 26 -45 26 -118 0 -171 -20 -40
-20 -42 -2 -69 23 -34 24 -75 4 -134 -14 -41 -14 -48 0 -75 19 -37 19 -65 0
-110 -13 -32 -13 -39 6 -87 21 -54 20 -98 -4 -132 -11 -15 -11 -23 4 -52 17
-34 17 -69 -2 -130 -8 -24 -7 -39 4 -60 22 -43 26 -95 10 -143 -12 -34 -12
-48 -2 -72 14 -35 15 -129 1 -153 -5 -11 -4 -36 5 -68 15 -60 10 -95 -19 -133
l-21 -26 31 -58 c48 -87 39 -173 -24 -217 -61 -42 -129 -36 -195 16 l-37 30
-23 -25 c-55 -59 -119 -69 -184 -30 l-40 25 -26 -25 c-45 -43 -115 -40 -180 7
-13 10 -26 8 -62 -10 -52 -25 -89 -23 -143 10 -30 18 -31 18 -69 -1 -49 -25
-90 -25 -139 0 -38 19 -39 19 -77 0 -49 -25 -82 -25 -136 1 -40 20 -45 20 -68
5 -15 -10 -46 -16 -78 -16 -43 0 -63 6 -100 31 l-47 31 -26 -21 c-34 -27 -86
-27 -141 0 -79 38 -95 122 -45 222 l28 56 -24 25 c-36 35 -43 121 -14 168 18
30 19 36 6 60 -24 45 -29 112 -11 148 15 29 15 33 -3 63 -31 51 -24 131 14
170 15 15 15 19 -4 49 -26 42 -25 69 1 102 20 26 21 29 6 64 -27 64 -28 79 -8
137 18 52 19 60 6 85 -19 36 -22 109 -6 139 10 18 10 29 -3 56 -22 45 -20 103
4 149 16 29 18 41 10 52 -32 38 -29 156 5 184 10 8 10 18 -1 48 -19 54 -17 99
8 143 21 38 21 39 2 60 -14 16 -19 36 -19 79 1 68 17 93 82 122 51 23 104 13
152 -27 l29 -25 21 29 c38 52 146 67 191 26 18 -16 21 -16 47 3 57 39 93 41
157 7z"/>
<path d="M589 2733 c0 -104 -2 -217 -4 -253 -1 -36 -6 -373 -9 -750 -4 -377
-9 -769 -12 -871 l-5 -186 802 -2 802 -1 -7 332 c-3 183 -8 605 -12 938 -3
333 -7 648 -9 700 -2 52 -4 137 -4 188 l-1 92 -770 0 -770 0 -1 -187z m1496
134 c4 -22 9 -339 21 -1524 l7 -623 -752 0 -751 0 5 193 c2 105 7 460 10 787
6 672 15 1172 21 1181 2 4 325 7 719 7 l715 0 5 -21z"/>
<path d="M662 2599 c-1 -293 -10 -1045 -18 -1527 l-5 -312 725 0 725 0 -4 68
c-3 64 -18 1457 -19 1844 -1 104 -3 188 -6 188 -12 0 -35 -21 -36 -32 -1 -7
-2 -18 -3 -24 -1 -15 -1098 -18 -1107 -3 -3 5 -10 6 -16 2 -7 -3 -53 -8 -103
-9 l-92 -3 -20 36 -21 36 0 -264z m1344 116 c1 -33 5 -359 9 -725 3 -366 8
-774 10 -907 l4 -243 -102 0 c-623 -1 -1221 1 -1225 5 -4 4 -3 524 3 905 2
118 4 379 6 580 1 201 4 384 7 407 l4 42 642 -2 641 -2 1 -60z"/>
<path d="M1401 2386 c-16 -17 -24 -40 -27 -73 -2 -26 -4 -50 -5 -53 -1 -3 -1
-9 1 -15 4 -25 -1 -514 -6 -545 -10 -53 -31 -88 -64 -105 -37 -19 -63 -19
-100 0 -30 15 -65 67 -53 79 4 3 2 6 -4 6 -6 0 -13 19 -17 43 -13 82 -59 118
-123 96 -58 -19 -77 -105 -43 -194 5 -14 6 -25 2 -25 -4 0 -2 -4 3 -8 6 -4 19
-23 29 -42 22 -39 31 -49 66 -73 42 -29 46 -19 8 21 -52 52 -81 123 -82 199
-1 50 3 65 18 76 22 16 65 9 77 -14 10 -18 22 -51 25 -64 1 -5 3 -12 4 -15 1
-3 4 -16 6 -29 2 -14 11 -32 19 -41 8 -9 15 -21 15 -26 0 -18 74 -52 105 -48
43 5 104 36 111 57 3 9 10 17 16 17 6 0 9 2 6 6 -3 3 0 24 7 47 9 29 12 132
12 342 1 191 5 310 12 327 19 49 101 46 117 -5 3 -10 5 -155 4 -320 0 -166 -1
-311 -1 -322 0 -11 -4 -35 -9 -53 -6 -25 -6 -32 3 -29 7 2 12 12 13 23 0 10 4
39 9 64 10 55 14 631 4 645 -4 6 -7 14 -7 18 0 5 -9 20 -21 33 -30 34 -98 34
-130 0z"/>
<path d="M1730 2330 c0 -5 5 -10 11 -10 5 0 7 5 4 10 -3 6 -8 10 -11 10 -2 0
-4 -4 -4 -10z"/>
<path d="M1896 1637 c3 -10 9 -15 12 -12 3 3 0 11 -7 18 -10 9 -11 8 -5 -6z"/>
<path d="M1899 1583 c-13 -16 -12 -17 4 -4 9 7 17 15 17 17 0 8 -8 3 -21 -13z"/>
<path d="M1755 1560 c-3 -6 1 -7 9 -4 18 7 21 14 7 14 -6 0 -13 -4 -16 -10z"/>
<path d="M1366 1503 c-6 -14 -5 -15 5 -6 7 7 10 15 7 18 -3 3 -9 -2 -12 -12z"/>
<path d="M1510 1505 c0 -2 6 -8 13 -14 10 -8 14 -7 14 2 0 8 -6 14 -14 14 -7
0 -13 -1 -13 -2z"/>
<path d="M1414 1423 c15 -4 16 -7 5 -15 -11 -7 -11 -9 -1 -6 20 5 16 23 -5 25
-15 2 -15 1 1 -4z"/>
<path d="M1247 1389 c7 -7 15 -10 18 -7 3 3 -2 9 -12 12 -14 6 -15 5 -6 -5z"/>
<path d="M1305 1350 c3 -5 8 -10 11 -10 2 0 4 5 4 10 0 6 -5 10 -11 10 -5 0
-7 -4 -4 -10z"/>
<path d="M1151 1324 c0 -11 3 -14 6 -6 3 7 2 16 -1 19 -3 4 -6 -2 -5 -13z"/>
<path d="M1000 1170 c-9 -6 -10 -10 -3 -10 6 0 15 5 18 10 8 12 4 12 -15 0z"/>
<path d="M866 1107 c3 -10 9 -15 12 -12 3 3 0 11 -7 18 -10 9 -11 8 -5 -6z"/>
<path d="M1503 1085 c-3 -9 -3 -18 -1 -21 3 -3 8 4 11 16 6 23 -1 27 -10 5z"/>
<path d="M1271 1047 c-1 -11 -6 -15 -13 -11 -7 5 -8 3 -3 -5 10 -16 29 2 22
21 -4 8 -6 7 -6 -5z"/>
<path d="M705 2852 c-16 -4 -13 -7 15 -16 19 -7 39 -10 45 -7 23 12 61 9 80
-7 19 -16 19 -16 6 1 -11 14 -11 17 2 17 9 0 18 4 21 8 5 8 -106 6 -131 -3 -6
-2 -13 -1 -15 3 -2 4 -12 6 -23 4z"/>
<path d="M900 2845 c-11 -13 -10 -14 4 -9 9 3 16 10 16 15 0 13 -6 11 -20 -6z"/>
<path d="M964 2844 c7 -8 17 -9 28 -3 12 7 28 4 49 -7 17 -8 28 -11 25 -5 -6
9 36 17 67 12 4 0 7 2 7 7 0 4 -42 7 -94 8 -73 0 -91 -2 -82 -12z"/>
<path d="M1235 2850 c-19 -8 -19 -9 3 -9 12 -1 22 4 22 9 0 6 -1 10 -2 9 -2 0
-12 -4 -23 -9z"/>
<path d="M1270 2849 c0 -4 13 -7 29 -7 15 1 33 -2 40 -6 6 -4 11 -2 11 5 0 8
4 8 13 1 8 -7 18 -7 27 -2 9 6 17 5 22 -3 5 -8 8 -7 8 5 0 11 -7 16 -20 15
-11 -1 -20 -5 -20 -10 0 -4 -6 -5 -12 0 -16 10 -98 11 -98 2z"/>
<path d="M1435 2850 c-4 -6 3 -10 14 -10 25 0 27 6 6 13 -8 4 -17 2 -20 -3z"/>
<path d="M1486 2852 c-6 -10 3 -12 66 -15 36 -2 44 0 37 10 -8 9 -17 9 -33 1
-17 -7 -30 -7 -44 1 -11 6 -23 7 -26 3z"/>
<path d="M1617 2844 c2 -7 11 -15 19 -18 9 -3 12 -1 9 4 -3 6 -1 10 6 10 19 0
1 14 -20 15 -11 1 -17 -3 -14 -11z"/>
<path d="M1690 2849 c-21 -6 -22 -7 -5 -9 49 -4 81 -12 94 -23 12 -9 13 -9 7
1 -6 11 5 17 27 13 13 -2 7 17 -8 23 -8 3 -15 1 -15 -3 0 -5 -8 -8 -17 -6 -10
2 -18 4 -18 6 0 5 -43 5 -65 -2z"/>
<path d="M1880 2848 c0 -4 7 -8 15 -8 8 0 15 4 15 8 0 5 -7 9 -15 9 -8 0 -15
-4 -15 -9z"/>
<path d="M1970 2853 c8 -3 22 -11 30 -17 13 -10 13 -9 1 7 -7 9 -21 17 -30 16
-13 0 -14 -1 -1 -6z"/>
<path d="M1156 2841 c9 -9 34 -9 34 -1 0 5 -9 8 -20 7 -10 -1 -17 -3 -14 -6z"/>
</g>
</svg>
