<?xml version="1.0" standalone="no"?>
<!DOCTYPE svg PUBLIC "-//W3C//DTD SVG 20010904//EN"
 "http://www.w3.org/TR/2001/REC-SVG-20010904/DTD/svg10.dtd">
<svg version="1.0" xmlns="http://www.w3.org/2000/svg"
 width="270.000000pt" height="357.000000pt" viewBox="0 0 270.000000 357.000000"
 preserveAspectRatio="xMidYMid meet">
<metadata>
Created by potrace 1.15, written by Peter Selinger 2001-2017
</metadata>
<g transform="translate(0.000000,357.000000) scale(0.100000,-0.100000)"
fill="#000000" stroke="none">
<path d="M970 3084 c-28 -12 -43 -13 -71 -5 -57 17 -110 13 -162 -12 l-48 -24
-58 21 c-51 18 -63 18 -100 7 -48 -14 -115 -70 -138 -115 -12 -23 -14 -49 -10
-111 2 -44 0 -136 -5 -205 -18 -220 -19 -297 -20 -785 0 -181 0 -368 -1 -415
-1 -47 0 -146 2 -220 2 -74 0 -158 -4 -185 -5 -37 -3 -61 9 -89 20 -47 20 -69
1 -121 -39 -109 5 -224 106 -275 41 -22 112 -26 154 -10 21 8 36 5 73 -12 31
-15 64 -22 97 -21 49 2 90 2 220 2 36 0 83 0 105 0 22 0 68 -1 103 -1 34 0 78
1 97 3 19 1 56 -3 82 -11 38 -11 55 -11 100 -1 46 11 59 11 92 -3 49 -21 106
-20 150 1 30 14 42 14 74 5 61 -19 113 -14 164 13 l47 25 41 -21 c99 -52 194
-28 256 65 47 71 53 127 24 207 -20 54 -22 67 -12 108 10 44 10 195 -2 751 -4
166 -5 315 -4 745 0 98 -17 265 -30 297 -10 24 -8 35 13 74 32 59 32 114 1
179 -51 108 -152 151 -256 109 -39 -16 -43 -15 -83 2 -25 12 -61 18 -92 18
-80 -3 -136 -3 -205 -2 -36 1 -78 0 -95 -1 -16 -2 -57 0 -90 4 -35 4 -76 3
-98 -3 -29 -8 -46 -7 -72 4 -41 17 -90 18 -134 3 -25 -9 -40 -8 -71 5 -50 20
-104 20 -150 0z m144 -69 l48 -25 28 20 c37 26 76 25 132 -3 43 -22 45 -22 74
-5 48 29 143 20 166 -16 4 -7 13 -5 25 6 31 28 83 36 130 20 24 -7 45 -18 48
-22 3 -5 24 0 48 10 23 11 51 20 62 20 38 0 90 -20 115 -44 l25 -24 33 25 c24
18 47 26 81 26 70 2 107 -18 132 -69 31 -66 29 -105 -10 -160 l-34 -46 23 -47
c23 -51 28 -100 12 -141 -7 -18 -4 -32 11 -57 26 -45 26 -118 0 -171 -20 -40
-20 -42 -2 -69 23 -34 24 -75 4 -134 -14 -41 -14 -48 0 -75 19 -37 19 -65 0
-110 -13 -32 -13 -39 6 -87 21 -54 20 -98 -4 -132 -11 -15 -11 -23 4 -52 17
-34 17 -69 -2 -130 -8 -24 -7 -39 4 -60 22 -43 26 -95 10 -143 -12 -34 -12
-48 -2 -72 14 -35 15 -129 1 -153 -5 -11 -4 -36 5 -68 15 -60 10 -95 -19 -133
l-21 -26 31 -58 c48 -87 39 -173 -24 -217 -61 -42 -129 -36 -195 16 l-37 30
-23 -25 c-55 -59 -119 -69 -184 -30 l-40 25 -26 -25 c-45 -43 -115 -40 -180 7
-13 10 -26 8 -62 -10 -52 -25 -89 -23 -143 10 -30 18 -31 18 -69 -1 -49 -25
-90 -25 -139 0 -38 19 -39 19 -77 0 -49 -25 -82 -25 -136 1 -40 20 -45 20 -68
5 -15 -10 -46 -16 -78 -16 -43 0 -63 6 -100 31 l-47 31 -26 -21 c-34 -27 -86
-27 -141 0 -79 38 -95 122 -45 222 l28 56 -24 25 c-36 35 -43 121 -14 168 18
30 19 36 6 60 -24 45 -29 112 -11 148 15 29 15 33 -3 63 -31 51 -24 131 14
170 15 15 15 19 -4 49 -26 42 -25 69 1 102 20 26 21 29 6 64 -27 64 -28 79 -8
137 18 52 19 60 6 85 -19 36 -22 109 -6 139 10 18 10 29 -3 56 -22 45 -20 103
4 149 16 29 18 41 10 52 -32 38 -29 156 5 184 10 8 10 18 -1 48 -19 54 -17 99
8 143 21 38 21 39 2 60 -14 16 -19 36 -19 79 1 68 17 93 82 122 51 23 104 13
152 -27 l29 -25 21 29 c38 52 146 67 191 26 18 -16 21 -16 47 3 57 39 93 41
157 7z"/>
<path d="M589 2733 c0 -104 -2 -217 -4 -253 -1 -36 -6 -373 -9 -750 -4 -377
-9 -769 -12 -871 l-5 -186 802 -2 802 -1 -7 332 c-3 183 -8 605 -12 938 -3
333 -7 648 -9 700 -2 52 -4 137 -4 188 l-1 92 -770 0 -770 0 -1 -187z m1496
134 c4 -22 9 -339 21 -1524 l7 -623 -752 0 -751 0 4 178 c3 97 8 443 11 767 6
698 15 1207 21 1216 2 4 325 7 719 7 l715 0 5 -21z"/>
<path d="M662 2584 c-1 -307 -9 -1024 -18 -1512 l-5 -312 725 0 725 0 -4 63
c-3 60 -18 1475 -19 1849 -1 104 -3 188 -6 188 -12 0 -35 -21 -36 -32 -1 -7
-2 -18 -3 -24 -1 -15 -1098 -18 -1107 -3 -3 5 -10 6 -16 2 -7 -3 -53 -8 -103
-9 l-92 -3 -20 36 -21 36 0 -279z m1344 131 c1 -33 5 -359 9 -725 3 -366 8
-774 10 -907 l4 -243 -102 0 c-623 -1 -1221 1 -1225 5 -4 4 -3 534 3 905 2
118 4 379 6 580 1 201 4 384 7 407 l4 42 642 -2 641 -2 1 -60z"/>
<path d="M1303 2386 c-16 -13 -38 -46 -50 -73 -28 -65 -78 -190 -93 -233 -7
-19 -18 -48 -25 -65 -8 -16 -23 -57 -35 -90 -12 -33 -28 -74 -36 -92 -8 -17
-14 -35 -14 -40 0 -5 -8 -27 -19 -49 -25 -52 -69 -181 -76 -220 -5 -35 25 -84
51 -84 9 0 12 -5 8 -12 -4 -7 -3 -8 5 -4 8 5 6 15 -9 33 -24 31 -25 63 -5 109
8 19 22 50 30 69 9 19 24 61 35 94 10 33 25 71 32 83 6 13 13 28 14 33 1 9 12
36 65 170 6 17 24 64 39 105 83 227 101 254 166 252 68 -3 87 -27 157 -202 68
-169 99 -246 127 -320 46 -122 70 -183 85 -215 21 -48 47 -145 42 -159 -3 -7
1 -13 9 -13 8 0 12 2 10 4 -2 3 -1 17 4 31 4 15 3 38 -2 52 -5 14 -11 33 -13
43 -2 9 -20 57 -40 105 -20 48 -48 113 -61 145 -13 32 -24 64 -24 70 0 6 -11
34 -24 62 -33 68 -102 241 -116 290 -15 52 -59 116 -90 132 -43 22 -115 16
-147 -11z"/>
<path d="M1730 2330 c0 -5 5 -10 11 -10 5 0 7 5 4 10 -3 6 -8 10 -11 10 -2 0
-4 -4 -4 -10z"/>
<path d="M1402 2159 c3 -19 15 -61 28 -93 12 -33 22 -68 23 -78 1 -10 5 -18
10 -18 4 0 5 -4 2 -10 -3 -5 -1 -10 4 -10 6 0 10 -3 9 -7 -1 -5 6 -25 15 -47
34 -79 35 -78 -118 -74 -136 3 -154 -1 -134 -33 6 -11 38 -14 145 -14 130 0
138 1 151 22 13 20 11 30 -16 105 -18 46 -46 128 -64 182 -17 55 -38 101 -46
104 -10 3 -12 -4 -9 -29z"/>
<path d="M1340 2133 c0 -21 3 -24 9 -14 5 8 7 20 4 28 -8 21 -13 15 -13 -14z"/>
<path d="M1315 2049 c-4 -6 -5 -12 -2 -15 2 -3 7 2 10 11 7 17 1 20 -8 4z"/>
<path d="M1270 1910 c-9 -6 -10 -10 -3 -10 6 0 15 5 18 10 8 12 4 12 -15 0z"/>
<path d="M1197 1729 c7 -7 15 -10 18 -7 3 3 -2 9 -12 12 -14 6 -15 5 -6 -5z"/>
<path d="M1570 1726 c0 -2 7 -7 16 -10 8 -3 12 -2 9 4 -6 10 -25 14 -25 6z"/>
<path d="M1581 1647 c15 -62 22 -82 30 -87 5 -3 10 -15 12 -26 3 -22 31 -69
53 -92 9 -9 15 -9 20 -1 3 6 1 15 -6 19 -6 4 -11 9 -10 11 1 2 -5 20 -13 39
-9 19 -25 60 -37 91 -12 30 -30 61 -40 67 -16 10 -17 8 -9 -21z"/>
<path d="M1246 1638 c3 -5 10 -6 15 -3 13 9 11 12 -6 12 -8 0 -12 -4 -9 -9z"/>
<path d="M1896 1637 c3 -10 9 -15 12 -12 3 3 0 11 -7 18 -10 9 -11 8 -5 -6z"/>
<path d="M1495 1630 c-3 -6 1 -7 9 -4 18 7 21 14 7 14 -6 0 -13 -4 -16 -10z"/>
<path d="M1310 1621 c0 -6 4 -13 10 -16 6 -3 7 1 4 9 -7 18 -14 21 -14 7z"/>
<path d="M1210 1589 c0 -5 -4 -7 -10 -4 -17 10 -11 -2 8 -16 9 -7 14 -9 10 -5
-4 5 -3 15 3 23 9 9 8 13 0 13 -6 0 -11 -5 -11 -11z"/>
<path d="M1899 1583 c-13 -16 -12 -17 4 -4 9 7 17 15 17 17 0 8 -8 3 -21 -13z"/>
<path d="M1135 1539 c-4 -6 -5 -12 -2 -15 2 -3 7 2 10 11 7 17 1 20 -8 4z"/>
<path d="M1366 1503 c-6 -14 -5 -15 5 -6 7 7 10 15 7 18 -3 3 -9 -2 -12 -12z"/>
<path d="M1121 1414 c0 -11 3 -14 6 -6 3 7 2 16 -1 19 -3 4 -6 -2 -5 -13z"/>
<path d="M1075 1400 c-3 -6 1 -7 9 -4 18 7 21 14 7 14 -6 0 -13 -4 -16 -10z"/>
<path d="M1677 1349 c7 -7 15 -10 18 -7 3 3 -2 9 -12 12 -14 6 -15 5 -6 -5z"/>
<path d="M1000 1170 c-9 -6 -10 -10 -3 -10 6 0 15 5 18 10 8 12 4 12 -15 0z"/>
<path d="M866 1107 c3 -10 9 -15 12 -12 3 3 0 11 -7 18 -10 9 -11 8 -5 -6z"/>
<path d="M1503 1085 c-3 -9 -3 -18 -1 -21 3 -3 8 4 11 16 6 23 -1 27 -10 5z"/>
<path d="M1271 1047 c-1 -11 -6 -15 -13 -11 -7 5 -8 3 -3 -5 10 -16 29 2 22
21 -4 8 -6 7 -6 -5z"/>
<path d="M705 2852 c-16 -4 -13 -7 15 -16 19 -7 39 -10 45 -7 23 12 61 9 80
-7 19 -16 19 -16 6 1 -12 15 -11 17 13 17 15 0 25 -4 22 -8 -3 -5 1 -9 9 -9 8
0 12 4 9 9 -3 4 0 8 5 8 6 0 11 4 11 8 0 9 -154 6 -177 -2 -6 -3 -13 -2 -15 2
-2 4 -12 6 -23 4z"/>
<path d="M953 2844 c0 -12 27 -11 47 1 5 3 24 -1 41 -10 17 -9 28 -12 25 -6
-6 9 36 17 67 12 4 0 7 2 7 7 0 4 -42 7 -93 8 -68 0 -94 -3 -94 -12z"/>
<path d="M1235 2850 c-19 -8 -19 -9 3 -9 12 -1 22 4 22 9 0 6 -1 10 -2 9 -2 0
-12 -4 -23 -9z"/>
<path d="M1270 2848 c0 -9 0 -9 48 -11 17 -1 32 2 32 7 0 5 6 4 13 -2 8 -7 18
-7 27 -2 9 6 17 5 22 -3 5 -8 8 -7 8 5 0 11 -7 16 -20 15 -11 -1 -20 -5 -20
-10 0 -4 -6 -5 -12 0 -17 10 -98 11 -98 1z"/>
<path d="M1435 2850 c-4 -6 3 -10 14 -10 25 0 27 6 6 13 -8 4 -17 2 -20 -3z"/>
<path d="M1486 2852 c-6 -10 3 -12 66 -15 36 -2 44 0 37 10 -8 9 -17 9 -33 1
-17 -7 -30 -7 -44 1 -11 6 -23 7 -26 3z"/>
<path d="M1621 2839 c24 -21 34 -25 24 -9 -3 6 -1 10 6 10 22 0 0 13 -27 16
l-26 3 23 -20z"/>
<path d="M1693 2852 c-39 -6 -25 -17 22 -19 25 -1 53 -7 62 -15 12 -9 15 -9 9
0 -6 11 5 17 27 13 13 -2 7 17 -8 23 -8 3 -15 1 -15 -3 0 -5 -8 -8 -17 -6 -10
2 -18 4 -18 6 0 4 -41 5 -62 1z"/>
<path d="M1880 2848 c0 -4 7 -8 15 -8 8 0 15 4 15 8 0 5 -7 9 -15 9 -8 0 -15
-4 -15 -9z"/>
<path d="M1970 2853 c8 -3 22 -11 30 -17 13 -10 13 -9 1 7 -7 9 -21 17 -30 16
-13 0 -14 -1 -1 -6z"/>
<path d="M1156 2841 c9 -9 34 -9 34 -1 0 5 -9 8 -20 7 -10 -1 -17 -3 -14 -6z"/>
</g>
</svg>
