<?xml version="1.0" standalone="no"?>
<!DOCTYPE svg PUBLIC "-//W3C//DTD SVG 20010904//EN"
 "http://www.w3.org/TR/2001/REC-SVG-20010904/DTD/svg10.dtd">
<svg version="1.0" xmlns="http://www.w3.org/2000/svg"
 width="270.000000pt" height="357.000000pt" viewBox="0 0 270.000000 357.000000"
 preserveAspectRatio="xMidYMid meet">
<metadata>
Created by potrace 1.15, written by Peter Selinger 2001-2017
</metadata>
<g transform="translate(0.000000,357.000000) scale(0.100000,-0.100000)"
fill="#000000" stroke="none">
<path d="M970 3084 c-28 -12 -43 -13 -71 -5 -57 17 -110 13 -162 -12 l-48 -24
-58 21 c-51 18 -63 18 -100 7 -48 -14 -115 -70 -138 -115 -12 -23 -14 -49 -10
-111 2 -44 0 -136 -5 -205 -18 -220 -19 -297 -20 -785 0 -181 0 -368 -1 -415
-1 -47 0 -146 2 -220 2 -74 0 -158 -4 -185 -5 -37 -3 -61 9 -89 20 -47 20 -69
1 -121 -39 -109 5 -224 106 -275 41 -22 112 -26 154 -10 21 8 36 5 73 -12 31
-15 64 -22 97 -21 49 2 90 2 220 2 36 0 83 0 105 0 22 0 68 -1 103 -1 34 0 78
1 97 3 19 1 56 -3 82 -11 38 -11 55 -11 100 -1 46 11 59 11 92 -3 49 -21 106
-20 150 1 30 14 42 14 74 5 61 -19 113 -14 164 13 l47 25 41 -21 c99 -52 194
-28 256 65 47 71 53 127 24 207 -20 54 -22 67 -12 108 10 44 10 195 -2 751 -4
166 -5 315 -4 745 0 98 -17 265 -30 297 -10 24 -8 35 13 74 32 59 32 114 1
179 -51 108 -152 151 -256 109 -39 -16 -43 -15 -83 2 -25 12 -61 18 -92 18
-80 -3 -136 -3 -205 -2 -36 1 -78 0 -95 -1 -16 -2 -57 0 -90 4 -35 4 -76 3
-98 -3 -29 -8 -46 -7 -72 4 -41 17 -90 18 -134 3 -25 -9 -40 -8 -71 5 -50 20
-104 20 -150 0z m144 -69 l48 -25 28 20 c37 26 76 25 132 -3 43 -22 45 -22 74
-5 48 29 143 20 166 -16 4 -7 13 -5 25 6 31 28 83 36 130 20 24 -7 45 -18 48
-22 3 -5 24 0 48 10 23 11 51 20 62 20 38 0 90 -20 115 -44 l25 -24 33 25 c24
18 47 26 81 26 70 2 107 -18 132 -69 31 -66 29 -105 -10 -160 l-34 -46 23 -47
c23 -51 28 -100 12 -141 -7 -18 -4 -32 11 -57 26 -45 26 -118 0 -171 -20 -40
-20 -42 -2 -69 23 -34 24 -75 4 -134 -14 -41 -14 -48 0 -75 19 -37 19 -65 0
-110 -13 -32 -13 -39 6 -87 21 -54 20 -98 -4 -132 -11 -15 -11 -23 4 -52 17
-34 17 -69 -2 -130 -8 -24 -7 -39 4 -60 22 -43 26 -95 10 -143 -12 -34 -12
-48 -2 -72 14 -35 15 -129 1 -153 -5 -11 -4 -36 5 -68 15 -60 10 -95 -19 -133
l-21 -26 31 -58 c48 -87 39 -173 -24 -217 -61 -42 -129 -36 -195 16 l-37 30
-23 -25 c-55 -59 -119 -69 -184 -30 l-40 25 -26 -25 c-45 -43 -115 -40 -180 7
-13 10 -26 8 -62 -10 -52 -25 -89 -23 -143 10 -30 18 -31 18 -69 -1 -49 -25
-90 -25 -139 0 -38 19 -39 19 -77 0 -49 -25 -82 -25 -136 1 -40 20 -45 20 -68
5 -15 -10 -46 -16 -78 -16 -43 0 -63 6 -100 31 l-47 31 -26 -21 c-34 -27 -86
-27 -141 0 -79 38 -95 122 -45 222 l28 56 -24 25 c-36 35 -43 121 -14 168 18
30 19 36 6 60 -24 45 -29 112 -11 148 15 29 15 33 -3 63 -31 51 -24 131 14
170 15 15 15 19 -4 49 -26 42 -25 69 1 102 20 26 21 29 6 64 -27 64 -28 79 -8
137 18 52 19 60 6 85 -19 36 -22 109 -6 139 10 18 10 29 -3 56 -22 45 -20 103
4 149 16 29 18 41 10 52 -32 38 -29 156 5 184 10 8 10 18 -1 48 -19 54 -17 99
8 143 21 38 21 39 2 60 -14 16 -19 36 -19 79 1 68 17 93 82 122 51 23 104 13
152 -27 l29 -25 21 29 c38 52 146 67 191 26 18 -16 21 -16 47 3 57 39 93 41
157 7z"/>
<path d="M589 2733 c0 -104 -2 -217 -4 -253 -1 -36 -6 -373 -9 -750 -4 -377
-9 -769 -12 -871 l-5 -186 802 -2 802 -1 -7 332 c-3 183 -8 605 -12 938 -3
333 -7 648 -9 700 -2 52 -4 137 -4 188 l-1 92 -770 0 -770 0 -1 -187z m1496
134 c4 -22 9 -339 21 -1524 l7 -623 -752 0 -751 0 4 178 c3 97 8 443 11 767 6
698 15 1207 21 1216 2 4 325 7 719 7 l715 0 5 -21z"/>
<path d="M662 2589 c-1 -283 -9 -983 -17 -1522 l-5 -307 724 0 725 0 -4 63
c-3 60 -18 1474 -19 1848 -1 182 -1 186 -21 179 -11 -4 -21 -14 -21 -21 -1 -8
-2 -19 -3 -25 -1 -7 -80 -11 -256 -12 -233 -1 -255 1 -256 16 0 16 -1 16 -7 1
-6 -15 -37 -17 -294 -17 -168 0 -290 4 -294 9 -3 5 -10 6 -16 2 -7 -3 -53 -8
-103 -9 l-92 -3 -20 36 -21 36 0 -274z m1344 126 c1 -33 5 -359 9 -725 3 -366
8 -774 10 -907 l4 -243 -102 0 c-623 -1 -1221 1 -1225 5 -4 4 -3 524 3 905 2
118 4 379 6 580 1 201 4 384 7 407 l4 42 642 -2 641 -2 1 -60z"/>
<path d="M1092 2406 c-62 -18 -67 -35 -68 -271 -1 -115 -3 -214 -4 -220 -1 -5
-2 -12 -1 -15 2 -3 3 -45 5 -95 1 -49 6 -98 10 -108 5 -10 6 -20 3 -23 -18
-18 76 -170 111 -179 12 -3 21 -9 18 -13 -2 -4 5 -8 16 -8 19 0 19 1 -4 21
-43 37 -75 89 -98 160 -22 67 -23 82 -21 363 2 334 5 352 65 352 44 0 66 -26
70 -86 6 -75 23 -64 19 13 -6 98 -43 132 -121 109z"/>
<path d="M1673 2405 c-60 -26 -62 -31 -61 -319 0 -277 -6 -375 -27 -416 -37
-71 -125 -102 -227 -81 -47 10 -64 19 -92 52 -46 55 -53 98 -52 357 1 199 -3
249 -16 210 -2 -7 -4 -132 -3 -277 0 -199 3 -265 13 -269 6 -2 12 -9 12 -15 0
-34 86 -97 140 -103 74 -9 134 -5 158 9 6 5 12 5 12 2 0 -16 67 51 89 89 25
41 25 42 27 359 2 264 5 322 18 341 22 34 52 38 83 12 22 -19 26 -32 29 -91 3
-39 6 -87 8 -108 2 -20 1 -35 -4 -32 -4 3 -5 -10 -1 -28 11 -52 4 -389 -9
-438 -6 -24 -18 -54 -26 -67 -10 -15 -11 -21 -2 -20 17 4 49 67 55 113 3 22 6
177 7 345 1 343 -1 354 -65 375 -28 10 -42 10 -66 0z"/>
<path d="M1896 1637 c3 -10 9 -15 12 -12 3 3 0 11 -7 18 -10 9 -11 8 -5 -6z"/>
<path d="M1899 1583 c-13 -16 -12 -17 4 -4 9 7 17 15 17 17 0 8 -8 3 -21 -13z"/>
<path d="M1474 1389 c-4 -7 -3 -9 4 -5 5 3 13 0 15 -6 4 -9 6 -10 6 -1 1 17
-16 25 -25 12z"/>
<path d="M1623 1380 c-11 -16 -10 -18 2 -14 8 4 15 12 15 20 0 19 -3 18 -17
-6z"/>
<path d="M1305 1350 c3 -5 8 -10 11 -10 2 0 4 5 4 10 0 6 -5 10 -11 10 -5 0
-7 -4 -4 -10z"/>
<path d="M1677 1349 c7 -7 15 -10 18 -7 3 3 -2 9 -12 12 -14 6 -15 5 -6 -5z"/>
<path d="M1000 1170 c-9 -6 -10 -10 -3 -10 6 0 15 5 18 10 8 12 4 12 -15 0z"/>
<path d="M866 1107 c3 -10 9 -15 12 -12 3 3 0 11 -7 18 -10 9 -11 8 -5 -6z"/>
<path d="M1503 1085 c-3 -9 -3 -18 -1 -21 3 -3 8 4 11 16 6 23 -1 27 -10 5z"/>
<path d="M1271 1047 c-1 -11 -6 -15 -13 -11 -7 5 -8 3 -3 -5 10 -16 29 2 22
21 -4 8 -6 7 -6 -5z"/>
<path d="M1680 940 c-9 -6 -10 -10 -3 -10 6 0 15 5 18 10 8 12 4 12 -15 0z"/>
<path d="M705 2852 c-16 -4 -13 -7 15 -16 19 -7 39 -10 45 -7 23 12 61 9 80
-7 11 -9 17 -13 12 -8 -4 5 0 17 8 26 14 16 11 17 -47 13 -35 -2 -68 -6 -75
-8 -6 -2 -13 -1 -15 3 -2 4 -12 6 -23 4z"/>
<path d="M899 2843 c-13 -15 -12 -15 11 -3 34 17 36 20 18 20 -9 0 -22 -7 -29
-17z"/>
<path d="M963 2845 c8 -9 18 -10 29 -4 12 7 28 4 49 -7 17 -8 28 -11 25 -5 -6
9 36 17 67 12 4 0 7 2 7 7 0 4 -42 8 -94 8 -76 1 -92 -1 -83 -11z"/>
<path d="M1235 2850 c-19 -8 -19 -9 3 -9 12 -1 22 4 22 9 0 6 -1 10 -2 9 -2 0
-12 -4 -23 -9z"/>
<path d="M1270 2849 c0 -4 7 -9 15 -13 8 -3 15 -1 15 4 0 6 9 6 24 0 17 -6 26
-5 29 4 3 8 -8 12 -39 12 -24 -1 -44 -4 -44 -7z"/>
<path d="M1375 2843 c-3 -10 0 -11 14 -3 14 7 21 6 24 -3 3 -7 6 -5 6 5 1 20
-36 21 -44 1z"/>
<path d="M1435 2850 c-4 -6 3 -10 14 -10 25 0 27 6 6 13 -8 4 -17 2 -20 -3z"/>
<path d="M1485 2850 c-4 -6 -3 -9 2 -8 4 1 19 -2 32 -6 14 -5 27 -4 35 4 8 8
7 10 -6 5 -9 -4 -26 -2 -37 4 -13 8 -22 8 -26 1z"/>
<path d="M1570 2851 c0 -5 7 -12 16 -15 14 -5 15 -4 4 9 -14 17 -20 19 -20 6z"/>
<path d="M1605 2849 c4 -5 15 -14 27 -20 15 -8 19 -8 14 0 -4 6 -2 11 5 11 22
0 0 13 -26 16 -14 1 -23 -2 -20 -7z"/>
<path d="M1690 2849 c-21 -6 -22 -7 -5 -9 11 -1 29 -3 40 -6 31 -6 58 -6 84 0
34 8 36 13 6 18 -14 3 -25 2 -25 -3 0 -4 -8 -6 -17 -4 -10 2 -18 4 -18 6 0 5
-43 5 -65 -2z"/>
<path d="M1880 2848 c0 -4 7 -8 15 -8 8 0 15 4 15 8 0 5 -7 9 -15 9 -8 0 -15
-4 -15 -9z"/>
<path d="M1970 2853 c8 -3 22 -11 30 -17 13 -10 13 -9 1 7 -7 9 -21 17 -30 16
-13 0 -14 -1 -1 -6z"/>
<path d="M1156 2841 c9 -9 34 -9 34 -1 0 5 -9 8 -20 7 -10 -1 -17 -3 -14 -6z"/>
</g>
</svg>
